<svg xmlns="http://www.w3.org/2000/svg" xmlns:xlink="http://www.w3.org/1999/xlink" fill="none" version="1.1" width="22.58837890625" height="22.64306640625" viewBox="0 0 22.58837890625 22.64306640625"><g><g transform="matrix(0.8660253882408142,0.5,-0.5,0.8660253882408142,1.7037265911222903,-4.226098902766861)"><g transform="matrix(0.7071067690849304,0.7071067690849304,-0.7071067690849304,0.7071067690849304,6.412974391787259,-11.946217276421692)"><path d="M18.62684726715088,2.768035888671875L22.62684726715088,2.768035888671875Q22.725337267150877,2.768035888671875,22.82193726715088,2.748820888671875Q22.918537267150878,2.729605888671875,23.00952726715088,2.691914888671875Q23.10052726715088,2.6542238886718748,23.18241726715088,2.599505888671875Q23.26430726715088,2.544786888671875,23.33395726715088,2.475142888671875Q23.40359726715088,2.405498888671875,23.45831726715088,2.323605888671875Q23.513037267150878,2.241713888671875,23.55072726715088,2.150718888671875Q23.58841726715088,2.059724888671875,23.60762726715088,1.963125888671875Q23.62684726715088,1.866527288671875,23.62684726715088,1.768035888671875Q23.62684726715088,1.669544488671875,23.60762726715088,1.572945888671875Q23.58841726715088,1.4763468886718751,23.55072726715088,1.385352888671875Q23.513037267150878,1.294357888671875,23.45831726715088,1.212465888671875Q23.40359726715088,1.130572888671875,23.33395726715088,1.0609288886718748Q23.26430726715088,0.991284888671875,23.18241726715088,0.936565888671875Q23.10052726715088,0.881847888671875,23.00952726715088,0.844156888671875Q22.918537267150878,0.806465888671875,22.82193726715088,0.787250888671875Q22.725337267150877,0.768035888671875,22.62684726715088,0.768035888671875L17.62684726715088,0.768035888671875Q17.52835586715088,0.768035888671875,17.43175726715088,0.787250888671875Q17.335158267150877,0.806465888671875,17.24416426715088,0.844156888671875Q17.15316926715088,0.881847888671875,17.07127726715088,0.936565888671875Q16.98938426715088,0.991284888671875,16.91974026715088,1.0609288886718748Q16.850096267150878,1.130572888671875,16.79537726715088,1.212465888671875Q16.74065926715088,1.294357888671875,16.70296826715088,1.385352888671875Q16.665277267150877,1.4763468886718751,16.646062267150878,1.572945888671875Q16.62684726715088,1.669544488671875,16.62684726715088,1.768035888671875L16.62684726715088,6.768035888671875Q16.62684726715088,6.866525888671875,16.646062267150878,6.963125888671875Q16.665277267150877,7.059725888671875,16.70296826715088,7.150715888671875Q16.74065926715088,7.241715888671875,16.79537726715088,7.323605888671875Q16.850096267150878,7.405495888671875,16.91974026715088,7.475145888671875Q16.98938426715088,7.544785888671875,17.07127726715088,7.599505888671875Q17.15316926715088,7.654225888671875,17.24416426715088,7.691915888671875Q17.335158267150877,7.729605888671875,17.43175726715088,7.748815888671875Q17.52835586715088,7.768035888671875,17.62684726715088,7.768035888671875Q17.72533866715088,7.768035888671875,17.82193726715088,7.748815888671875Q17.91853626715088,7.729605888671875,18.00953026715088,7.691915888671875Q18.10052526715088,7.654225888671875,18.18241726715088,7.599505888671875Q18.26431026715088,7.544785888671875,18.33395426715088,7.475145888671875Q18.40359826715088,7.405495888671875,18.45831726715088,7.323605888671875Q18.51303526715088,7.241715888671875,18.55072626715088,7.150715888671875Q18.58841726715088,7.059725888671875,18.60763226715088,6.963125888671875Q18.62684726715088,6.866525888671875,18.62684726715088,6.768035888671875L18.62684726715088,2.768035888671875Z" fill-rule="evenodd" fill="#505D7D" fill-opacity="1"/></g><g transform="matrix(0.7071067690849304,-0.7071067690849304,0.7071067690849304,0.7071067690849304,-4.487684318601552,9.524422378257292)"><path d="M21.643252549266816,10.88643264020157Q21.783952549266814,10.745780640201568,21.860052549266815,10.562008640201569Q21.936152549266815,10.378237640201569,21.936152549266815,10.179325640201569Q21.936152549266815,10.080834240201568,21.916952549266817,9.984235640201568Q21.897752549266816,9.887636640201569,21.860052549266815,9.796642640201568Q21.822352549266817,9.705647640201569,21.767652549266813,9.62375564020157Q21.712952549266817,9.541862640201568,21.643252549266816,9.472218640201568Q21.573652549266814,9.402574640201568,21.491752549266813,9.34785564020157Q21.409852549266816,9.293137640201568,21.318852549266815,9.25544664020157Q21.227852549266814,9.217755640201569,21.131252549266815,9.198540640201568Q21.034652549266816,9.179325640201569,20.936152549266815,9.179325640201569Q20.737252549266813,9.179325640201569,20.553452549266815,9.255445640201568Q20.369752549266813,9.331566640201569,20.229052549266815,9.472218640201568L20.228752549266815,9.47253264020157L15.095302549266815,14.605985640201569L13.773132549266816,13.283815640201569Q13.632482549266815,13.143165640201568,13.448712549266816,13.067045640201568Q13.264942549266816,12.990925640201569,13.066032549266815,12.990925640201569Q12.867112549266816,12.990925640201569,12.683342549266815,13.067045640201568Q12.499572549266816,13.143165640201568,12.358922549266815,13.283815640201569L8.546534549266815,17.096205640201568L8.546045549266815,17.096695640201567Q8.405393549266815,17.237345640201568,8.329273549266816,17.42111564020157Q8.253152549266815,17.60488564020157,8.253152549266815,17.803795640201567Q8.253152549266815,17.90228564020157,8.272367549266814,17.998885640201568Q8.291582549266815,18.095485640201566,8.329273549266816,18.186485640201568Q8.366964549266815,18.27747564020157,8.421682549266816,18.359365640201567Q8.476401549266814,18.441265640201568,8.546045549266815,18.51090564020157Q8.615689549266815,18.58054564020157,8.697582549266816,18.635265640201567Q8.779474549266816,18.68998564020157,8.870469549266815,18.727675640201568Q8.961463549266815,18.76536564020157,9.058062549266815,18.78458564020157Q9.154661149266815,18.80379564020157,9.253152549266815,18.80379564020157Q9.452064549266815,18.80379564020157,9.635835549266815,18.727675640201568Q9.819606549266815,18.65155564020157,9.960258549266815,18.51090564020157L13.066032549266815,15.405135640201568L14.388202549266815,16.727305640201568Q14.528852549266816,16.86795564020157,14.712622549266815,16.944085640201568Q14.896392549266814,17.020205640201567,15.095302549266815,17.020205640201567Q15.294222549266816,17.020205640201567,15.477992549266816,16.944085640201568Q15.661762549266815,16.86795564020157,15.802412549266815,16.727305640201568L21.642952549266816,10.886746640201569L21.643252549266816,10.88643264020157L21.643252549266816,10.88643264020157Z" fill-rule="evenodd" fill="#505D7D" fill-opacity="1"/></g></g><g><path d="M4.050048828125,5.1953125Q4.050048828125,5.0968215,4.069263828125,5.0002225Q4.088477828125,4.9036235,4.1261688281249995,4.8126295Q4.163859828125,4.7216349,4.218578828125,4.6397423Q4.273297828125,4.5578495,4.342941828125,4.4882055Q4.412585828125,4.4185615,4.494478828125,4.3638425Q4.576368828125,4.3091245,4.667368828125,4.2714335Q4.758358828125,4.2337415,4.854958828125,4.2145275Q4.951558828125,4.1953125,5.050048828125,4.1953125Q5.148538828125,4.1953125,5.245138828125,4.2145275Q5.341738828125,4.2337415,5.432728828125,4.2714325Q5.523728828125,4.3091245,5.6056188281249995,4.3638425Q5.687508828125,4.4185615,5.757158828125,4.4882055Q5.826798828125,4.5578495,5.8815188281249995,4.6397423Q5.936238828125,4.7216349,5.9739288281250005,4.8126295Q6.011618828125,4.9036235,6.030828828125,5.0002225Q6.050048828125,5.0968215,6.050048828125,5.1953125L6.050048828125,17.6953125Q6.050048828125,17.7938125,6.030828828125,17.8904125Q6.011618828125,17.9870125,5.9739288281250005,18.0780125Q5.936238828125,18.1690125,5.8815188281249995,18.2509125Q5.826798828125,18.3328125,5.757158828125,18.4024125Q5.687508828125,18.472012499999998,5.6056188281249995,18.5268125Q5.523728828125,18.581512500000002,5.432728828125,18.6192125Q5.341738828125,18.6569125,5.245138828125,18.676112500000002Q5.148538828125,18.6953125,5.050048828125,18.6953125Q4.951558828125,18.6953125,4.854958828125,18.676112500000002Q4.758358828125,18.6569125,4.667368828125,18.6192125Q4.576368828125,18.581512500000002,4.494478828125,18.5268125Q4.412585828125,18.472012499999998,4.342941828125,18.4024125Q4.273297828125,18.3328125,4.218578828125,18.2509125Q4.163859828125,18.1690125,4.1261688281249995,18.0780125Q4.088477828125,17.9870125,4.069263828125,17.8904125Q4.050048828125,17.7938125,4.050048828125,17.6953125L4.050048828125,5.1953125Z" fill-rule="evenodd" fill="#505D7D" fill-opacity="1"/></g><g><path d="M5.550048828125,16.6953125L18.050048828125,16.6953125Q18.148548828125,16.6953125,18.245148828125,16.7145275Q18.341748828125,16.733742499999998,18.432748828125,16.7714335Q18.523748828125,16.8091245,18.605648828125,16.8638425Q18.687548828125,16.9185615,18.757148828125,16.9882055Q18.826748828124998,17.0578495,18.881548828125,17.1397425Q18.936248828125002,17.2216345,18.973948828125,17.3126295Q19.011648828125,17.4036235,19.030848828125002,17.5002225Q19.050048828125,17.5968211,19.050048828125,17.6953125Q19.050048828125,17.7938039,19.030848828125002,17.8904025Q19.011648828125,17.9870015,18.973948828125,18.0779955Q18.936248828125002,18.1689905,18.881548828125,18.2508825Q18.826748828124998,18.3327755,18.757148828125,18.4024195Q18.687548828125,18.4720635,18.605648828125,18.5267825Q18.523748828125,18.5815005,18.432748828125,18.6191915Q18.341748828125,18.656882500000002,18.245148828125,18.6760975Q18.148548828125,18.6953125,18.050048828125,18.6953125L5.550048828125,18.6953125Q5.451557428125,18.6953125,5.354958828125,18.6760975Q5.258359828125,18.656882500000002,5.167365828125,18.6191915Q5.076370828125,18.5815005,4.994478828125,18.5267825Q4.912585828125,18.4720635,4.842941828125,18.4024195Q4.773297828125,18.3327755,4.718578828125,18.2508825Q4.663860828125,18.1689905,4.626169828125,18.0779955Q4.588478828125,17.9870015,4.569263828125,17.8904025Q4.550048828125,17.7938039,4.550048828125,17.6953125Q4.550048828125,17.5968211,4.569263828125,17.5002225Q4.588478828125,17.4036235,4.626169828125,17.3126295Q4.663860828125,17.2216345,4.718578828125,17.1397425Q4.773297828125,17.0578495,4.842941828125,16.9882055Q4.912585828125,16.9185615,4.994478828125,16.8638425Q5.076370828125,16.8091245,5.167365828125,16.7714335Q5.258359828125,16.733742499999998,5.354958828125,16.7145275Q5.451557428125,16.6953125,5.550048828125,16.6953125Z" fill-rule="evenodd" fill="#505D7D" fill-opacity="1"/></g></g></svg>