<svg xmlns="http://www.w3.org/2000/svg" xmlns:xlink="http://www.w3.org/1999/xlink" fill="none" version="1.1" width="16" height="16" viewBox="0 0 16 16"><g><g><path d="M2,10L2,13.5Q2,14.53553,2.732233,15.267769999999999Q3.464466,16,4.5,16Q5.53553,16,6.2677700000000005,15.267769999999999Q7,14.53553,7,13.5L7,10Q7,9.9015086,6.98078,9.80491Q6.96157,9.708311,6.9238800000000005,9.617317Q6.88619,9.526322,6.8314699999999995,9.44443Q6.77675,9.362537,6.70711,9.292893Q6.63746,9.223249,6.5555699999999995,9.16853Q6.47368,9.113812,6.382680000000001,9.076121Q6.29169,9.03843,6.19509,9.019214999999999Q6.09849,9,6,9L3,9Q2.9015086,9,2.80491,9.019214999999999Q2.708311,9.03843,2.617317,9.076121Q2.526322,9.113812,2.44443,9.16853Q2.362537,9.223249,2.292893,9.292893Q2.223249,9.362537,2.16853,9.44443Q2.1138120000000002,9.526322,2.076121,9.617317Q2.03843,9.708311,2.019215,9.80491Q2,9.9015086,2,10ZM4.14645,13.85355Q4,13.70711,4,13.5L4,11L5,11L5,13.5Q5,13.70711,4.85355,13.85355Q4.70711,14,4.5,14Q4.29289,14,4.14645,13.85355Z" fill-rule="evenodd" fill="#505D7D" fill-opacity="1"/></g><g><path d="M9,10L9,13.5Q9,14.53553,9.732233,15.267769999999999Q10.464466,16,11.5,16Q12.53553,16,13.26777,15.267769999999999Q14,14.53553,14,13.5L14,10Q14,9.9015086,13.98078,9.80491Q13.96157,9.708311,13.92388,9.617317Q13.88619,9.526322,13.83147,9.44443Q13.77675,9.362537,13.70711,9.292893Q13.63746,9.223249,13.55557,9.16853Q13.47368,9.113812,13.38268,9.076121Q13.29169,9.03843,13.19509,9.019214999999999Q13.09849,9,13,9L10,9Q9.9015086,9,9.80491,9.019214999999999Q9.708311,9.03843,9.617317,9.076121Q9.526322,9.113812,9.44443,9.16853Q9.362537,9.223249,9.292893,9.292893Q9.223249,9.362537,9.16853,9.44443Q9.113812,9.526322,9.076121,9.617317Q9.03843,9.708311,9.019214999999999,9.80491Q9,9.9015086,9,10ZM11.14645,13.85355Q11,13.70711,11,13.5L11,11L12,11L12,13.5Q12,13.70711,11.85355,13.85355Q11.70711,14,11.5,14Q11.29289,14,11.14645,13.85355Z" fill-rule="evenodd" fill="#505D7D" fill-opacity="1"/></g><g><path d="M0,9L0,2Q0,1.171573,0.5857859999999999,0.5857859999999999Q1.171573,0,2,0L14,0Q14.8284,0,15.4142,0.5857859999999999Q16,1.1715740000000001,16,2L16,9Q16,9.82842,15.4142,10.41421Q14.8284,11,14,11L2,11Q1.1715740000000001,11,0.5857859999999999,10.41421Q0,9.82843,0,9ZM2,9L2,9L14,9L14,9L14,2L14,2L2,2L2,2L2,9Z" fill="#505D7D" fill-opacity="1"/></g></g></svg>