<svg xmlns="http://www.w3.org/2000/svg" xmlns:xlink="http://www.w3.org/1999/xlink" fill="none" version="1.1" width="16" height="16" viewBox="0 0 16 16"><g><g><path d="M0,14L0,2Q0,1.171573,0.5857859999999999,0.5857859999999999Q1.171573,0,2,0L14,0Q14.8284,0,15.4142,0.5857859999999999Q16,1.1715740000000001,16,2L16,14Q16,14.8284,15.4142,15.4142Q14.8284,16,14,16L2,16Q1.1715740000000001,16,0.5857859999999999,15.4142Q0,14.8284,0,14ZM2,14L2,14L14,14L14,14L14,2L14,2L2,2L2,2L2,14Z" fill="#505D7D" fill-opacity="1"/></g><g><path d="M15.6341,3.707107Q15.7748,3.566455,15.8509,3.382683Q15.927,3.198912,15.927,3Q15.927,2.9015086,15.9078,2.80491Q15.8886,2.708311,15.8509,2.617317Q15.8132,2.526322,15.7585,2.44443Q15.7038,2.362537,15.6341,2.292893Q15.5645,2.223249,15.4826,2.16853Q15.4007,2.1138120000000002,15.3097,2.076121Q15.2187,2.03843,15.1221,2.019215Q15.0255,2,14.927,2Q14.7281,2,14.5443,2.07612Q14.3606,2.152241,14.2199,2.292893L14.2196,2.2932069999999998L8.08249,8.43033L5.84433,6.192159999999999Q5.77468,6.12252,5.69279,6.0678Q5.6109,6.01308,5.5199,5.97539Q5.42891,5.9376999999999995,5.33231,5.91849Q5.23571,5.89927,5.13722,5.89927Q5.03873,5.89927,4.942130000000001,5.91849Q4.84553,5.9376999999999995,4.75453,5.97539Q4.663539999999999,6.01308,4.58165,6.0678Q4.499750000000001,6.12252,4.43011,6.192159999999999L0.293268,10.32901L0.29289299999999996,10.32938Q0.15224099999999996,10.470030000000001,0.076121,10.65381Q0,10.837579999999999,0,11.03649Q0,11.13498,0.019214999999999982,11.23158Q0.038429999999999964,11.32818,0.076121,11.41917Q0.11381200000000002,11.51017,0.16852999999999996,11.59206Q0.22324900000000003,11.67395,0.29289299999999996,11.7436Q0.362537,11.81324,0.44443,11.86796Q0.526322,11.92268,0.617317,11.96037Q0.708311,11.99806,0.80491,12.01727Q0.9015086,12.03649,1,12.03649Q1.198912,12.03649,1.382683,11.96037Q1.566455,11.88425,1.7071070000000002,11.7436L1.7074820000000002,11.74322L5.13722,8.31349L7.37538,10.55165Q7.44502,10.62129,7.52691,10.67601Q7.60881,10.730730000000001,7.6998,10.768419999999999Q7.79079,10.80611,7.88739,10.82532Q7.98399,10.84454,8.08249,10.84454Q8.18098,10.84454,8.27758,10.82532Q8.37417,10.80611,8.46517,10.768419999999999Q8.55616,10.730730000000001,8.63805,10.67601Q8.71995,10.62129,8.78959,10.55165L15.6338,3.707421L15.6341,3.707107L15.6341,3.707107Z" fill-rule="evenodd" fill="#505D7D" fill-opacity="1"/></g></g></svg>