<svg xmlns="http://www.w3.org/2000/svg" xmlns:xlink="http://www.w3.org/1999/xlink" fill="none" version="1.1" width="21" height="15.884765625" viewBox="0 0 21 15.884765625"><defs><mask id="master_svg0_0_3048"><g><rect x="19" y="4" width="2" height="8" rx="0" fill="#FFFFFF" fill-opacity="1"/></g></mask></defs><g><g><g style="opacity:0;"><rect x="19" y="4" width="2" height="8" rx="0" fill="#969696" fill-opacity="1"/></g><g mask="url(#master_svg0_0_3048)"><g><ellipse cx="17" cy="8" rx="4" ry="4" fill="#F5A623" fill-opacity="1"/></g></g></g><g><rect x="2" y="3" width="3" height="9" rx="1" fill="#F5A623" fill-opacity="1"/></g><g><ellipse cx="2.5" cy="7.5" rx="2.5" ry="2.5" fill="#F5A623" fill-opacity="1"/></g><g><path d="M6,3.52273C6,3.26912,6.126646,3.01609,6.284795,2.95731L17.4212,0.00667083C17.7409,-0.0459812,18,0.21841,18,0.610266L18,14.527C18,14.9124,17.7382,15.1829,17.4212,15.1306L6.284795,12.18C6.127507,12.1215,6,11.8687,6,11.6146L6,3.52273Z" fill-rule="evenodd" fill="#F5A623" fill-opacity="1"/></g><g><path d="M10.25823,15.56689C9.415268,15.403030000000001,8.864981,14.58751,9.0288823,13.74431L9.317748,12.25823C9.481602,11.415268,10.29712,10.864981,11.14033,11.0288823L12.62641,11.317748C13.46937,11.481602,14.01966,12.29712,13.85575,13.14033L13.56689,14.62641C13.403030000000001,15.46937,12.58751,16.019660000000002,11.74431,15.85575L10.25823,15.56689ZM12.5082,11.925878L11.022120000000001,11.637012C10.51483,11.538405000000001,10.02446,11.869289,9.925878,12.37643L9.637012,13.86252C9.538405000000001,14.369810000000001,9.869289,14.86018,10.37643,14.95876L11.86252,15.247620000000001C12.369810000000001,15.34623,12.86018,15.01535,12.95876,14.5082L13.247620000000001,13.022120000000001C13.34623,12.51483,13.01535,12.02446,12.5082,11.925878Z" fill-rule="evenodd" fill="#F5A623" fill-opacity="1"/></g></g></svg>