<svg xmlns="http://www.w3.org/2000/svg" xmlns:xlink="http://www.w3.org/1999/xlink" fill="none" version="1.1" width="16" height="17" viewBox="0 0 16 17"><g><g><path d="M0,16L0,4Q0,3.9015086,0.019214999999999982,3.80491Q0.038429999999999964,3.708311,0.076121,3.617317Q0.11381200000000002,3.526322,0.16852999999999996,3.44443Q0.22324900000000003,3.362537,0.29289299999999996,3.292893Q0.362537,3.223249,0.44443,3.16853Q0.526322,3.1138120000000002,0.617317,3.076121Q0.708311,3.03843,0.80491,3.019215Q0.9015086,3,1,3L15,3Q15.0985,3,15.1951,3.019215Q15.2917,3.03843,15.3827,3.076121Q15.4737,3.1138120000000002,15.5556,3.16853Q15.6375,3.223249,15.7071,3.292893Q15.7767,3.362537,15.8315,3.44443Q15.8862,3.526322,15.9239,3.617317Q15.9616,3.708311,15.9808,3.80491Q16,3.9015086,16,4L16,16Q16,16.0985,15.9808,16.1951Q15.9616,16.2917,15.9239,16.3827Q15.8862,16.4737,15.8315,16.5556Q15.7767,16.6375,15.7071,16.7071Q15.6375,16.776699999999998,15.5556,16.8315Q15.4737,16.886200000000002,15.3827,16.9239Q15.2917,16.9616,15.1951,16.980800000000002Q15.0985,17,15,17L1,17Q0.9015086,17,0.80491,16.980800000000002Q0.708311,16.9616,0.617317,16.9239Q0.526322,16.886200000000002,0.44443,16.8315Q0.362537,16.776699999999998,0.29289299999999996,16.7071Q0.22324900000000003,16.6375,0.16852999999999996,16.5556Q0.11381200000000002,16.4737,0.076121,16.3827Q0.038429999999999964,16.2917,0.019214999999999982,16.1951Q0,16.0985,0,16ZM2,5L2,15L14,15L14,5L2,5Z" fill="#505D7D" fill-opacity="1"/></g><g><path d="M2.337501,3.2509400000009663L2.337347,3.2510700000009662Q2.25781,3.3214500000009664,2.1948280000000002,3.4069600000009665Q2.131846,3.4924700000009663,2.088229,3.5893000000009665Q2.044612,3.6861300000009662,2.022306,3.789970000000966Q2,3.8938000000009665,2,4.000000000000966Q2,4.098490000000966,2.019215,4.195090000000967Q2.03843,4.291690000000966,2.076121,4.382680000000967Q2.1138120000000002,4.473680000000966,2.16853,4.555570000000966Q2.223249,4.637460000000966,2.292893,4.7071100000009665Q2.362537,4.776750000000966,2.44443,4.831470000000966Q2.526322,4.886190000000966,2.617317,4.923880000000967Q2.708311,4.961570000000966,2.80491,4.9807800000009665Q2.9015086,5.000000000000966,3,5.000000000000966Q3.183095,5.000000000000966,3.354311,4.935130000000966Q3.525528,4.870260000000966,3.662653,4.748930000000966L3.662806,4.748790000000966L6.76948,2.0000000000009663L9.23052,2.0000000000009663L12.33735,4.748930000000966Q12.47447,4.870250000000967,12.64569,4.935130000000966Q12.81691,5.000000000000966,13,5.000000000000966Q13.0985,5.000000000000966,13.1951,4.9807800000009665Q13.2917,4.961570000000966,13.3827,4.923880000000967Q13.4737,4.886190000000966,13.5556,4.831470000000966Q13.6375,4.776750000000966,13.7071,4.7071100000009665Q13.7767,4.637460000000966,13.8315,4.555570000000966Q13.8862,4.473680000000966,13.9239,4.382680000000967Q13.9616,4.291690000000966,13.9808,4.195090000000967Q14,4.098490000000966,14,4.000000000000966Q14,3.8938000000009665,13.9777,3.789970000000966Q13.9554,3.6861300000009662,13.9118,3.5893000000009665Q13.8682,3.4924700000009663,13.8052,3.4069600000009665Q13.7422,3.3214500000009664,13.6627,3.2510700000009662L10.27207,0.25107300000096633Q10.13494,0.12974500000096634,9.96373,0.06487200000096638Q9.79251,9.663381206337363e-13,9.60941,9.663381206337363e-13L6.3905899999999995,9.663381206337363e-13Q6.20749,9.663381206337363e-13,6.03627,0.06487200000096638Q5.86506,0.12974500000096634,5.727930000000001,0.25107300000096633L2.337501,3.2509400000009663Z" fill-rule="evenodd" fill="#505D7D" fill-opacity="1"/></g><g><path d="M7.0058581990814215,10.235360251541138Q6.771488199081421,9.983410251541137,6.1855481990814205,9.415050251541139L6.1855481990814205,12.854510251541138L5.376948199081421,12.854510251541138L5.376948199081421,9.558610251541138Q4.8994181990814205,10.604510251541138,4.351562199081421,11.342790251541137L4.043945199081421,10.387710251541137Q4.386718199081421,9.910170251541139,4.714848199081421,9.262710251541137Q5.042968199081421,8.615250251541138,5.277348199081421,7.929700251541138L4.196289199081421,7.929700251541138L4.196289199081421,7.112320251541138L5.376948199081421,7.112320251541138L5.376948199081421,6.069350251541138Q4.799808199081421,6.183610251541138,4.26953119908142,6.256850251541138L4.178710199081421,5.465830251541138Q4.890628199081421,5.366220251541138,5.7460981990814215,5.187510251541138Q6.6015581990814205,5.005870251541138,7.213868199081421,4.827160251541137L7.357418199081421,5.600600251541138Q6.797848199081421,5.761730251541138,6.1855481990814205,5.905290251541137L6.1855481990814205,7.112320251541138L7.366208199081421,7.112320251541138L7.366208199081421,7.929700251541138L6.1855481990814205,7.929700251541138L6.1855481990814205,8.445330251541137Q6.941408199081421,9.045910251541137,7.49218819908142,9.614270251541138L7.0058581990814215,10.235360251541138ZM11.523438199081422,5.041030251541137L11.523438199081422,11.729510251541138L12.11816819908142,11.729510251541138L12.11816819908142,12.546890251541138L6.897458199081421,12.546890251541138L6.897458199081421,11.729510251541138L7.761718199081421,11.729510251541138L7.761718199081421,5.041030251541137L11.523438199081422,5.041030251541137ZM10.676758199081421,7.282240251541138L10.676758199081421,5.843760251541138L8.590818199081422,5.843760251541138L8.590818199081422,7.282240251541138L10.676758199081421,7.282240251541138ZM8.590818199081422,9.479510251541138L10.676758199081421,9.479510251541138L10.676758199081421,8.084970251541137L8.590818199081422,8.084970251541137L8.590818199081422,9.479510251541138ZM10.676758199081421,10.279310251541137L8.590818199081422,10.279310251541137L8.590818199081422,11.729510251541138L10.676758199081421,11.729510251541138L10.676758199081421,10.279310251541137Z" fill="#505D7D" fill-opacity="1"/></g></g></svg>