<svg xmlns="http://www.w3.org/2000/svg" xmlns:xlink="http://www.w3.org/1999/xlink" fill="none" version="1.1" width="17.73809814453125" height="18" viewBox="0 0 17.73809814453125 18"><g><g><path d="M2.82036,13.961385194946288Q2.89635,13.937353194946288,2.9611,13.890890194946289Q3.02585,13.844426194946289,3.07294,13.780136194946289Q3.12004,13.71584619494629,3.14482,13.640100194946289Q3.16959,13.564354094946289,3.16959,13.484659194946289Q3.16959,13.435413494946289,3.15998,13.38711409494629Q3.15038,13.33881419494629,3.13153,13.293317194946288Q3.11268,13.24782019494629,3.08533,13.20687419494629Q3.05797,13.16592819494629,3.02314,13.13110619494629Q2.98832,13.09628419494629,2.94738,13.06892419494629Q2.90643,13.041565194946289,2.86093,13.022719194946289Q2.81544,13.003874194946288,2.76714,12.99426619494629Q2.71884,12.984659194946289,2.66959,12.984659194946289Q2.59241,12.984659194946289,2.51882,13.00793319494629Q0,13.804555194946289,0,15.098169194946289Q-0.0000010000000000287557,16.46972919494629,2.81331,17.277119194946287Q5.33216,17.99999919494629,8.86906,17.99999919494629Q12.406,17.99999919494629,14.9248,17.277119194946287Q17.7381,16.46972919494629,17.7381,15.098169194946289Q17.7381,13.81056719494629,15.2416,13.014996194946288Q15.1675,12.991393194946289,15.0897,12.991393194946289Q15.0405,12.991393194946289,14.9922,13.00100019494629Q14.9439,13.010607194946289,14.8984,13.029453194946289Q14.8529,13.04829819494629,14.812,13.07565819494629Q14.771,13.10301719494629,14.7362,13.13783919494629Q14.7014,13.17266119494629,14.674,13.21360719494629Q14.6466,13.254554194946289,14.6278,13.300051194946288Q14.609,13.34554819494629,14.5993,13.393847594946289Q14.5897,13.442146994946288,14.5897,13.491392714946288Q14.5897,13.57094799494629,14.6144,13.64657419494629Q14.6391,13.722201194946289,14.6861,13.78643019494629Q14.733,13.850659194946289,14.7976,13.89714619494629Q14.8621,13.94363419494629,14.9379,13.967789194946288Q15.8813,14.268395194946288,16.3692,14.62597919494629Q16.7381,14.89633919494629,16.7381,15.098169194946289Q16.7381,15.321839194946289,16.2997,15.61931919494629Q15.7305,16.005519194946288,14.649,16.31591919494629Q12.2653,16.99999919494629,8.86906,16.99999919494629Q5.47281,16.99999919494629,3.08917,16.31591919494629Q2.0076,16.005519194946288,1.438418,15.61931919494629Q1,15.321839194946289,1,15.098169194946289Q1,14.89479919494629,1.373707,14.622489194946288Q1.8673,14.262808194946288,2.82036,13.961385194946288Z" fill-rule="evenodd" fill="#F5A623" fill-opacity="1"/></g><g><g><path d="M14.495728015899658,5.81818C14.495728015899658,11.6364,9.28464801589966,16,8.495728015899658,16C7.706808015899658,16,2.495728015899658,11.6364,2.495728015899658,5.81818C2.495728015899658,2.60489,5.182018015899658,0,8.495728015899658,0C11.809438015899659,0,14.495728015899658,2.60489,14.495728015899658,5.81818ZM8.495728015899658,8.72736Q8.643108015899658,8.72736,8.789778015899659,8.71335Q8.936448015899657,8.69935,9.08099801589966,8.67146Q9.225548015899658,8.64358,9.366578015899659,8.6021Q9.50761801589966,8.56061,9.643778015899658,8.50592Q9.779938015899658,8.45123,9.909918015899658,8.38386Q10.03989801589966,8.31649,10.162438015899658,8.23709Q10.284978015899657,8.15769,10.398908015899657,8.06703Q10.512838015899659,7.97636,10.617048015899659,7.87531Q10.721258015899657,7.77425,10.814758015899658,7.66378Q10.908258015899658,7.5533,10.990138015899658,7.43447Q11.072018015899658,7.31565,11.141488015899657,7.18961Q11.210968015899658,7.06357,11.267368015899658,6.93153Q11.323768015899658,6.7995,11.366548015899658,6.66273Q11.409328015899659,6.52597,11.438088015899659,6.38581Q11.466838015899658,6.24564,11.481278015899658,6.10341Q11.495728015899658,5.96119,11.495728015899658,5.81827Q11.495728015899658,5.67536,11.481278015899658,5.53313Q11.466838015899658,5.3909,11.438088015899659,5.25073Q11.409328015899659,5.11057,11.366548015899658,4.97381Q11.323768015899658,4.83705,11.267368015899658,4.70501Q11.210968015899658,4.57297,11.141488015899657,4.44693Q11.072018015899658,4.3209,10.990138015899658,4.20207Q10.908258015899658,4.08324,10.814758015899658,3.97276Q10.721258015899657,3.86229,10.617048015899659,3.76123Q10.512838015899659,3.66018,10.398908015899657,3.56951Q10.284978015899657,3.47885,10.162438015899658,3.39945Q10.03989801589966,3.32005,9.909918015899658,3.25268Q9.779938015899658,3.18531,9.643778015899658,3.13062Q9.50761801589966,3.07593,9.366578015899659,3.03444Q9.225548015899658,2.99296,9.08099801589966,2.96508Q8.936448015899657,2.9372,8.789778015899659,2.92319Q8.643108015899658,2.90918,8.495728015899658,2.90918Q8.348348015899658,2.90918,8.201678015899658,2.92319Q8.05500801589966,2.9372,7.910458015899658,2.96508Q7.765908015899658,2.99296,7.624878015899658,3.03444Q7.483838015899658,3.07593,7.347678015899659,3.13062Q7.211518015899658,3.18531,7.081538015899659,3.25268Q6.951558015899658,3.32005,6.829018015899658,3.39945Q6.706478015899658,3.47885,6.592548015899658,3.56951Q6.478618015899658,3.66018,6.374408015899658,3.76123Q6.270198015899658,3.86229,6.1766980158996585,3.97276Q6.083198015899658,4.08324,6.001318015899658,4.20207Q5.919438015899658,4.3209,5.849968015899658,4.44693Q5.7804880158996585,4.57297,5.7240880158996585,4.70501Q5.6676880158996585,4.83705,5.624908015899658,4.97381Q5.582128015899658,5.11057,5.553368015899658,5.25073Q5.524618015899659,5.3909,5.510178015899658,5.53313Q5.495728015899658,5.67536,5.495728015899658,5.81827Q5.495728015899658,5.96119,5.510178015899658,6.10341Q5.524618015899659,6.24564,5.553368015899658,6.38581Q5.582128015899658,6.52597,5.624908015899658,6.66273Q5.6676880158996585,6.7995,5.7240880158996585,6.93153Q5.7804880158996585,7.06357,5.849968015899658,7.18961Q5.919438015899658,7.31565,6.001318015899658,7.43447Q6.083198015899658,7.5533,6.1766980158996585,7.66378Q6.270198015899658,7.77425,6.374408015899658,7.87531Q6.478618015899658,7.97636,6.592548015899658,8.06703Q6.706478015899658,8.15769,6.829018015899658,8.23709Q6.951558015899658,8.31649,7.081538015899659,8.38386Q7.211518015899658,8.45123,7.347678015899659,8.50592Q7.483838015899658,8.56061,7.624878015899658,8.6021Q7.765908015899658,8.64358,7.910458015899658,8.67146Q8.05500801589966,8.69935,8.201678015899658,8.71335Q8.348348015899658,8.72736,8.495728015899658,8.72736Z" fill-rule="evenodd" fill="#F5A623" fill-opacity="1"/></g></g></g></svg>