<svg xmlns="http://www.w3.org/2000/svg" xmlns:xlink="http://www.w3.org/1999/xlink" fill="none" version="1.1" width="17.9764404296875" height="18" viewBox="0 0 17.9764404296875 18"><g><g><g><path d="M11.82537347366333,5.5158323767089845Q12.13990347366333,5.113442376708984,12.32960347366333,4.639247376708984Q12.51930347366333,4.165051376708984,12.56900347366333,3.6567520867089844Q12.81490347366333,3.767018376708984,13.05220347366333,3.8946443767089844Q13.28960347366333,4.022271376708984,13.51710347366333,4.166599376708985Q13.74470347366333,4.310927376708984,13.96130347366333,4.4712133767089846Q14.17790347366333,4.631499376708985,14.38240347366333,4.8069123767089845Q14.58700347366333,4.982332376708984,14.77840347366333,5.171982376708984Q14.96980347366333,5.361622376708985,15.14710347366333,5.564512376708985Q15.32450347366333,5.767402376708985,15.48680347366333,5.982502376708984Q15.64910347366333,6.197592376708984,15.79550347366333,6.423782376708985Q15.94200347366333,6.649972376708984,16.07180347366333,6.8860923767089846Q16.20170347366333,7.122202376708985,16.31420347366333,7.367032376708984Q16.42680347366333,7.611852376708985,16.52150347366333,7.864122376708984Q16.61620347366333,8.116392376708983,16.692603473663333,8.374812376708984Q16.76890347366333,8.633232376708985,16.82650347366333,8.896462376708985Q16.88420347366333,9.159692376708986,16.92270347366333,9.426372376708985Q16.961303473663328,9.693062376708983,16.98060347366333,9.961832376708983Q17.00000347366333,10.230592376708984,17.00000347366333,10.500052376708984Q17.00000347366333,10.685582376708984,16.99080347366333,10.870882376708984C16.97180347366333,10.859462376708985,16.95270347366333,10.848182376708984,16.93340347366333,10.837062376708985C16.32360347366333,10.484962376708985,15.65330347366333,10.332352376708984,14.998203473663331,10.358972376708984Q14.99330347366333,10.168412376708984,14.97520347366333,9.978652376708984Q14.95710347366333,9.788892376708985,14.92600347366333,9.600842376708984Q14.89480347366333,9.412792376708985,14.85070347366333,9.227342376708984Q14.80660347366333,9.041902376708984,14.74970347366333,8.859952376708986Q14.69290347366333,8.678002376708985,14.62360347366333,8.500432376708984Q14.55430347366333,8.322862376708985,14.47290347366333,8.150512376708985Q14.39140347366333,7.978162376708984,14.29830347366333,7.8118623767089845Q14.20510347366333,7.645562376708984,14.10060347366333,7.486112376708984Q13.99620347366333,7.326662376708985,13.88090347366333,7.174822376708985Q13.76570347366333,7.022992376708984,13.64020347366333,6.8795023767089845Q13.51470347366333,6.736012376708985,13.37960347366333,6.601552376708984Q13.24450347366333,6.467092376708985,13.10040347366333,6.342302376708984Q12.956303473663331,6.217522376708985,12.80390347366333,6.1030123767089846Q12.65150347366333,5.988502376708984,12.49160347366333,5.884822376708984Q12.33160347366333,5.781142376708985,12.16490347366333,5.688782376708984Q11.99812347366333,5.5964223767089845,11.82537347366333,5.5158323767089845ZM5.51364347366333,4.147172376708984Q5.314043473663331,4.2724213767089845,5.122693473663331,4.409954376708985Q4.93134347366333,4.547486376708984,4.74900347366333,4.6967623767089846Q4.5666734736633305,4.846032376708984,4.39406347366333,5.006462376708985Q4.22145347366333,5.166882376708984,4.05926347366333,5.337832376708985Q3.89706347366333,5.5087723767089845,3.7459234736633302,5.6895623767089845Q3.5947834736633304,5.870362376708984,3.45528347366333,6.060282376708985Q3.31578347366333,6.250202376708984,3.18849347366333,6.448502376708984Q3.06119347366333,6.646812376708985,2.94659247366333,6.852712376708984Q2.8319944736633302,7.058622376708984,2.7305494736633302,7.271312376708984Q2.62910347366333,7.484002376708984,2.54120947366333,7.7026523767089845Q2.45331647366333,7.921292376708984,2.37932147366333,8.145022376708983Q2.30532747366333,8.368742376708983,2.2455234736633303,8.596682376708983Q2.18572047366333,8.824612376708984,2.14034447366333,9.055852376708984Q2.09496757366333,9.287082376708984,2.06419697366333,9.520712376708985Q2.0334264736633303,9.754342376708983,2.01738317366333,9.989442376708984Q2.00133999366333,10.224542376708985,2.00008736596333,10.460192376708985C2.66950647366333,10.294632376708984,3.36358347366333,10.329492376708984,4.00014347366333,10.542772376708985Q3.99998347366333,10.521412376708984,3.99998347366333,10.500052376708984Q3.99998347366333,10.157422376708984,4.042503473663331,9.817442376708986Q4.08503347366333,9.477452376708985,4.16942347366333,9.145372376708984Q4.25381347366333,8.813292376708985,4.37877347366333,8.494262376708985Q4.503733473663329,8.175222376708984,4.66731347366333,7.874162376708984Q4.83090347366333,7.5731023767089845,5.03058347366333,7.294672376708984Q5.23027347366333,7.016242376708984,5.462973473663331,6.764742376708984Q5.69567347366333,6.5132523767089845,5.95778347366333,6.292582376708984Q6.21990347366333,6.071912376708984,6.50737347366333,5.8854823767089846Q6.14019347366333,5.530482376708984,5.886723473663331,5.087092376708984Q5.633253473663331,4.6436983767089846,5.51364347366333,4.147172376708984ZM11.88819347366333,15.454442376708984C12.17390347366333,16.070542376708985,12.63680347366333,16.611442376708986,13.254303473663331,16.992742376708982Q12.82820347366333,17.239142376708983,12.37350347366333,17.427742376708984Q11.91890347366333,17.616342376708985,11.44351347366333,17.743842376708983Q10.96813347366333,17.871442376708984,10.48015347366333,17.935742376708987Q9.99218347366333,18.000042376708983,9.499983473663331,18.000042376708983Q8.928003473663331,18.000042376708983,8.36264347366333,17.913342376708982Q7.79728347366333,17.826542376708986,7.25161347366333,17.655142376708984Q6.70594347366333,17.483642376708985,6.19258347366333,17.231442376708983Q5.67922347366333,16.979142376708985,5.21005347366333,16.652042376708984C5.73525347366333,16.197442376708985,6.10426347366333,15.609742376708985,6.29542347366333,14.970042376708985Q6.64365347366333,15.219742376708984,7.02635347366333,15.412442376708984Q7.40904347366333,15.605142376708985,7.81696347366333,15.736242376708985Q8.224893473663329,15.867342376708985,8.64819347366333,15.933742376708985Q9.07150347366333,16.000042376708983,9.499983473663331,16.000042376708983Q10.12020347366333,16.000042376708983,10.72485347366333,15.861942376708985Q11.32949347366333,15.723842376708985,11.88819347366333,15.454442376708984Z" fill-rule="evenodd" fill="#505D7D" fill-opacity="1"/></g><g><path d="M11.836005666041375,3.3073405800819398Q11.836005666041375,3.44666058008194,11.822405666041375,3.5853205800819397Q11.808705666041375,3.72398058008194,11.781505666041374,3.86063058008194Q11.754405666041373,3.9972805800819398,11.713905666041374,4.13061058008194Q11.673505666041374,4.26394058008194,11.620105666041374,4.392660580081939Q11.566805666041374,4.5213805800819395,11.501205666041374,4.64426058008194Q11.435505666041374,4.767140580081939,11.358105666041375,4.88298058008194Q11.280705666041374,4.99883058008194,11.192305666041374,5.10653058008194Q11.103905666041374,5.21424058008194,11.005405666041375,5.31276058008194Q10.906805666041373,5.4112805800819395,10.799105666041374,5.49967058008194Q10.691405666041375,5.58805058008194,10.575605666041374,5.665460580081939Q10.459705666041375,5.74287058008194,10.336905666041375,5.80855058008194Q10.214005666041373,5.87423058008194,10.085305666041375,5.92755058008194Q9.956555666041375,5.98086058008194,9.823225666041374,6.0213105800819395Q9.689895666041375,6.06175058008194,9.553245666041374,6.08894058008194Q9.416595666041374,6.116120580081939,9.277935666041374,6.1297705800819395Q9.139275666041375,6.143430580081939,8.999945666041373,6.143430580081939Q8.860615666041374,6.143430580081939,8.721965666041374,6.1297705800819395Q8.583305666041374,6.116120580081939,8.446655666041375,6.08894058008194Q8.310005666041373,6.06175058008194,8.176675666041374,6.0213105800819395Q8.043345666041374,5.98086058008194,7.9146156660413745,5.92755058008194Q7.785895666041374,5.87423058008194,7.663025666041374,5.80855058008194Q7.540145666041374,5.74287058008194,7.424295666041374,5.665460580081939Q7.308445666041374,5.58805058008194,7.2007456660413744,5.49967058008194Q7.093045666041374,5.4112805800819395,6.994525666041374,5.31276058008194Q6.896005666041374,5.21424058008194,6.807615666041374,5.10653058008194Q6.719225666041374,4.99883058008194,6.641815666041374,4.88298058008194Q6.564415666041374,4.767140580081939,6.498735666041374,4.64426058008194Q6.4330556660413745,4.5213805800819395,6.379735666041374,4.392660580081939Q6.326415666041374,4.26394058008194,6.285975666041375,4.13061058008194Q6.245525666041374,3.9972805800819398,6.218345666041374,3.86063058008194Q6.191165666041374,3.72398058008194,6.177505666041374,3.5853205800819397Q6.163855666041374,3.44666058008194,6.163855666041374,3.3073405800819398Q6.163855666041374,3.1680105800819396,6.177505666041374,3.02935058008194Q6.191165666041374,2.8906905800819396,6.218345666041374,2.7540405800819396Q6.245525666041374,2.6173905800819397,6.285975666041375,2.4840605800819398Q6.326415666041374,2.35073058008194,6.379735666041374,2.22201058008194Q6.4330556660413745,2.0932905800819395,6.498735666041374,1.9704105800819396Q6.564415666041374,1.8475305800819397,6.641815666041374,1.7316805800819397Q6.719225666041374,1.6158405800819398,6.807615666041374,1.5081405800819396Q6.896005666041374,1.4004335800819399,6.994525666041374,1.3019135800819397Q7.093045666041374,1.2033935800819398,7.2007456660413744,1.1150045800819397Q7.308445666041374,1.0266155800819396,7.424295666041374,0.9492085800819396Q7.540145666041374,0.8718015800819396,7.663025666041374,0.8061225800819397Q7.785895666041374,0.7404445800819397,7.9146156660413745,0.6871255800819397Q8.043345666041374,0.6338065800819397,8.176675666041374,0.5933615800819397Q8.310005666041373,0.5529169800819397,8.446655666041375,0.5257353800819397Q8.583305666041374,0.4985536800819397,8.721965666041374,0.4848971800819397Q8.860615666041374,0.4712405800819397,8.999945666041373,0.4712405800819397Q9.139275666041375,0.4712405800819397,9.277935666041374,0.4848971800819397Q9.416595666041374,0.4985536800819397,9.553245666041374,0.5257353800819397Q9.689895666041375,0.5529169800819397,9.823225666041374,0.5933615800819397Q9.956555666041375,0.6338065800819397,10.085305666041375,0.6871255800819397Q10.214005666041373,0.7404445800819397,10.336905666041375,0.8061225800819397Q10.459705666041375,0.8718015800819396,10.575605666041374,0.9492085800819396Q10.691405666041375,1.0266155800819396,10.799105666041374,1.1150045800819397Q10.906805666041373,1.2033935800819398,11.005405666041375,1.3019135800819397Q11.103905666041374,1.4004335800819399,11.192305666041374,1.5081405800819396Q11.280705666041374,1.6158405800819398,11.358105666041375,1.7316805800819397Q11.435505666041374,1.8475305800819397,11.501205666041374,1.9704105800819396Q11.566805666041374,2.0932905800819395,11.620105666041374,2.22201058008194Q11.673505666041374,2.35073058008194,11.713905666041374,2.4840605800819398Q11.754405666041373,2.6173905800819397,11.781505666041374,2.7540405800819396Q11.808705666041375,2.8906905800819396,11.822405666041375,3.02935058008194Q11.836005666041375,3.1680105800819396,11.836005666041375,3.3073405800819398ZM13.722305666041374,16.399040580081937Q13.601705666041374,16.32934058008194,13.488405666041373,16.24824058008194Q13.375205666041374,16.167040580081938,13.270405666041373,16.07524058008194Q13.165705666041374,15.98334058008194,13.070405666041374,15.881640580081939Q12.975205666041374,15.77994058008194,12.890405666041374,15.66944058008194Q12.805505666041375,15.55884058008194,12.732005666041374,15.44054058008194Q12.658405666041375,15.32224058008194,12.596805666041375,15.19724058008194Q12.535105666041375,15.07234058008194,12.486105666041373,14.94194058008194Q12.437005666041374,14.811540580081939,12.400905666041375,14.67694058008194Q12.364905666041373,14.54234058008194,12.342205666041375,14.40494058008194Q12.319505666041374,14.26744058008194,12.310405666041374,14.12844058008194Q12.301205666041374,13.98934058008194,12.305805666041374,13.85014058008194Q12.310405666041374,13.710840580081939,12.328505666041375,13.57274058008194Q12.346705666041375,13.43464058008194,12.378405666041374,13.29894058008194Q12.410005666041375,13.16324058008194,12.454805666041374,13.03124058008194Q12.499605666041374,12.89934058008194,12.557105666041375,12.77244058008194Q12.614605666041374,12.64554058008194,12.684205666041374,12.52484058008194Q12.753905666041375,12.40424058008194,12.835105666041374,12.290940580081939Q12.916205666041375,12.17774058008194,13.008105666041374,12.072940580081939Q13.100005666041374,11.96824058008194,13.201605666041374,11.87294058008194Q13.303305666041375,11.77774058008194,13.413905666041375,11.69284058008194Q13.524405666041375,11.608040580081939,13.642705666041374,11.53454058008194Q13.761005666041374,11.460940580081939,13.886005666041374,11.39934058008194Q14.011005666041374,11.33764058008194,14.141405666041374,11.288640580081939Q14.271805666041374,11.23954058008194,14.406305666041375,11.20344058008194Q14.540905666041374,11.167440580081939,14.678405666041375,11.14474058008194Q14.815905666041374,11.12204058008194,14.954905666041375,11.11294058008194Q15.093905666041374,11.10374058008194,15.233205666041375,11.10834058008194Q15.372405666041374,11.11294058008194,15.510605666041375,11.13104058008194Q15.648705666041375,11.14924058008194,15.784405666041375,11.18094058008194Q15.920105666041374,11.21254058008194,16.052005666041374,11.257340580081939Q16.183905666041372,11.30214058008194,16.310905666041375,11.35964058008194Q16.437805666041374,11.41714058008194,16.558405666041374,11.486740580081939Q16.679105666041373,11.55644058008194,16.792305666041376,11.63764058008194Q16.905605666041374,11.71874058008194,17.010305666041376,11.81064058008194Q17.115105666041373,11.90254058008194,17.210305666041375,12.00414058008194Q17.305605666041373,12.10584058008194,17.390405666041374,12.21644058008194Q17.475205666041376,12.32694058008194,17.548805666041375,12.44524058008194Q17.622405666041374,12.56354058008194,17.684005666041376,12.68854058008194Q17.745605666041374,12.81354058008194,17.794705666041374,12.94394058008194Q17.843805666041373,13.07434058008194,17.879805666041374,13.20884058008194Q17.915905666041375,13.34344058008194,17.938605666041376,13.48094058008194Q17.961305666041373,13.61844058008194,17.970405666041373,13.757440580081939Q17.979505666041373,13.89644058008194,17.975005666041373,14.03574058008194Q17.970405666041373,14.17494058008194,17.952205666041372,14.31314058008194Q17.934005666041376,14.45124058008194,17.902405666041375,14.58694058008194Q17.870705666041374,14.72264058008194,17.826005666041375,14.85454058008194Q17.781205666041373,14.98644058008194,17.723705666041376,15.11344058008194Q17.666205666041375,15.24034058008194,17.596505666041374,15.36094058008194Q17.526805666041373,15.48164058008194,17.445705666041373,15.59484058008194Q17.364505666041374,15.70814058008194,17.272705666041375,15.81284058008194Q17.180805666041373,15.91764058008194,17.079105666041375,16.012840580081942Q16.977405666041374,16.10814058008194,16.866905666041376,16.192940580081938Q16.756305666041374,16.27774058008194,16.638005666041373,16.35134058008194Q16.519705666041375,16.424940580081937,16.394705666041375,16.48654058008194Q16.269805666041375,16.548140580081938,16.139405666041373,16.59724058008194Q16.009005666041375,16.64634058008194,15.874405666041374,16.682340580081938Q15.739805666041374,16.71844058008194,15.602405666041374,16.74114058008194Q15.464905666041375,16.76384058008194,15.325905666041374,16.77294058008194Q15.186805666041375,16.78204058008194,15.047605666041374,16.77754058008194Q14.908305666041374,16.77294058008194,14.770205666041374,16.75474058008194Q14.632105666041374,16.73654058008194,14.496405666041374,16.70494058008194Q14.360705666041374,16.67324058008194,14.228705666041375,16.62854058008194Q14.096805666041375,16.58374058008194,13.969905666041374,16.52624058008194Q13.843005666041375,16.468740580081942,13.722305666041374,16.399040580081937ZM1.4416056660413743,11.48664058008194Q1.5622656660413743,11.41694058008194,1.6891756660413741,11.35944058008194Q1.8160856660413742,11.30194058008194,1.948015666041374,11.25714058008194Q2.079955666041374,11.212440580081939,2.2156356660413743,11.18074058008194Q2.351325666041374,11.149140580081939,2.489465666041374,11.13094058008194Q2.627605666041374,11.11274058008194,2.766855666041374,11.10814058008194Q2.906105666041374,11.10364058008194,3.045135666041374,11.11274058008194Q3.184165666041374,11.12184058008194,3.321635666041374,11.144540580081939Q3.459105666041374,11.16724058008194,3.5936856660413743,11.20334058008194Q3.728265666041374,11.23934058008194,3.8586656660413743,11.28844058008194Q3.989065666041374,11.33754058008194,4.114025666041374,11.399140580081939Q4.2389856660413745,11.46074058008194,4.357295666041375,11.53434058008194Q4.475615666041374,11.607940580081939,4.586155666041374,11.69274058008194Q4.696695666041374,11.77754058008194,4.798385666041375,11.87284058008194Q4.900075666041374,11.96804058008194,4.991935666041374,12.07284058008194Q5.083805666041374,12.17754058008194,5.164955666041374,12.29084058008194Q5.246115666041375,12.40404058008194,5.315785666041374,12.52474058008194Q5.385445666041374,12.645340580081939,5.442945666041374,12.77224058008194Q5.500445666041374,12.89924058008194,5.545235666041374,13.03114058008194Q5.590015666041374,13.16304058008194,5.621655666041375,13.29874058008194Q5.653295666041374,13.43444058008194,5.671485666041375,13.57254058008194Q5.689665666041374,13.71074058008194,5.694225666041374,13.84994058008194Q5.698785666041374,13.98924058008194,5.689675666041374,14.12824058008194Q5.680555666041374,14.267240580081939,5.657865666041374,14.40474058008194Q5.635165666041374,14.54224058008194,5.599105666041374,14.67684058008194Q5.563045666041374,14.81134058008194,5.513965666041374,14.94174058008194Q5.464885666041374,15.072140580081939,5.403265666041374,15.197140580081939Q5.341645666041374,15.322140580081939,5.268065666041374,15.44044058008194Q5.194495666041374,15.55874058008194,5.109675666041374,15.66924058008194Q5.024855666041375,15.77984058008194,4.929615666041374,15.88154058008194Q4.834365666041374,15.98314058008194,4.729615666041374,16.07504058008194Q4.624865666041374,16.166940580081942,4.511615666041374,16.24804058008194Q4.3983556660413745,16.32924058008194,4.2776956660413745,16.39894058008194Q4.1570356660413745,16.46854058008194,4.030125666041374,16.52604058008194Q3.9032156660413744,16.58354058008194,3.7712856660413743,16.62834058008194Q3.639345666041374,16.673140580081938,3.5036556660413742,16.70474058008194Q3.367975666041374,16.73644058008194,3.229835666041374,16.75464058008194Q3.091695666041374,16.77274058008194,2.952445666041374,16.77734058008194Q2.8131956660413744,16.78194058008194,2.6741556660413743,16.77274058008194Q2.5351256660413743,16.76364058008194,2.397665666041374,16.74094058008194Q2.260195666041374,16.71824058008194,2.1256156660413743,16.682240580081938Q1.9910356660413742,16.64614058008194,1.8606356660413743,16.59704058008194Q1.7302356660413742,16.54804058008194,1.6052756660413743,16.48634058008194Q1.480315666041374,16.424740580081938,1.3619956660413741,16.35114058008194Q1.2436856660413742,16.27764058008194,1.1331456660413741,16.19274058008194Q1.0226086660413742,16.107940580081937,0.9209176660413743,16.01274058008194Q0.8192266660413742,15.917440580081939,0.7273616660413742,15.81274058008194Q0.6354956660413742,15.70794058008194,0.5543396660413742,15.59474058008194Q0.4731846660413742,15.481440580081939,0.4035196660413742,15.36084058008194Q0.33385566604137423,15.24014058008194,0.2763536660413742,15.11324058008194Q0.2188526660413742,14.98634058008194,0.17406666604137422,14.85444058008194Q0.12928066604137423,14.72244058008194,0.09764266604137421,14.58674058008194Q0.0660045660413742,14.451040580081939,0.0478185660413742,14.31294058008194Q0.029632506041374206,14.17484058008194,0.025073806041374207,14.035540580081939Q0.020515106041374208,13.89634058008194,0.029627616041374205,13.75724058008194Q0.0387401660413742,13.61824058008194,0.06143606604137421,13.480740580081939Q0.08413206604137421,13.34334058008194,0.1201928660413742,13.20874058008194Q0.1562536660413742,13.07414058008194,0.2053326660413742,12.94374058008194Q0.2544106660413742,12.81334058008194,0.31603366604137423,12.68844058008194Q0.3776576660413742,12.56344058008194,0.4512326660413742,12.44514058008194Q0.5248066660413742,12.32684058008194,0.6096246660413742,12.216240580081939Q0.6944426660413742,12.105740580081939,0.7896866660413742,12.00404058008194Q0.8849306660413742,11.90234058008194,0.9896826660413742,11.81044058008194Q1.094435666041374,11.71864058008194,1.2076856660413742,11.63744058008194Q1.3209456660413743,11.55634058008194,1.4416056660413743,11.48664058008194Z" fill="#505D7D" fill-opacity="1"/></g></g></g></svg>